<svg xmlns="http://www.w3.org/2000/svg" width="2026.438" height="695.758" viewBox="0 0 2026.438 695.758">
  <g id="Group_1" data-name="Group 1" transform="translate(-123.748 1082.253)">
    <path id="Path_1" data-name="Path 1" d="M1995.38,676.168V652.637h20.851c21.446,0,29.786,5.361,29.786,20.254,0,12.809-8.936,17.277-22.637,17.277H1912.872c-18.169,0-23.531-7.447-23.531-16.383,0-14.595,8.34-21.148,40.51-21.148V617.489h-13.7c-32.169,0-58.977,18.467-58.977,55.4,0,36.34,24.723,54.211,55.1,54.211h110.805c34.254,0,55.1-20.254,55.1-49.445,0-17.276-5.957-26.212-19.063-37.233l16.085-6.85V615.7H1966.19v60.466Z" transform="translate(72 -1114)" fill="#075590"/>
    <path id="Path_2" data-name="Path 2" d="M2075.208,450.388h-125.7c-5.66-7.447-10.128-14-10.128-21.148,0-6.553,3.575-11.915,11.617-11.915h124.209V383.964h-129.57c-20.851,0-33.659,10.426-33.659,31.276,0,12.212,3.574,21.148,19.063,37.233-13.106,7.149-19.063,12.51-19.063,29.19,0,15.787,7.149,22.936,19.063,36.935h-16.084v31.574h160.25V516.811h-125.7c-5.66-7.744-10.128-14.3-10.128-21.446,0-6.553,3.575-11.617,11.617-11.617h124.209Z" transform="translate(72 -1114)" fill="#075590"/>
    <path id="Path_3" data-name="Path 3" d="M1947.722,282.393c-4.765-6.553-8.34-12.51-8.34-19.063,0-8.936,4.766-16.085,25.914-16.085h59.573c21.148,0,25.914,7.149,25.914,16.085,0,6.553-3.574,12.51-8.34,19.063Zm127.486,1.787h-16.681v-.6c14-11.021,19.659-19.064,19.659-35.744,0-20.85-15.488-33.956-44.679-33.956h-76.849c-29.19,0-44.679,13.106-44.679,33.956,0,14.6,5.957,21.446,16.68,34.552h-68.508v33.361h215.057Z" transform="translate(72 -1114)" fill="#075590"/>
    <path id="Path_4" data-name="Path 4" d="M2075.208,109.037h-95.316V69.719h95.316V32.784H1860.151V69.719h87.572v39.318h-87.572v36.935h215.057Z" transform="translate(72 -1114)" fill="#075590"/>
    <path id="Path_5" data-name="Path 5" d="M380.354,31.747l-84.8,406.662h-1.927l-84.8-406.662H51.748V727.505H155.822V184h1.927l107.929,543.5H323.5L431.427,184h1.927v543.5H537.429V31.747Z" transform="translate(72 -1114)" fill="#075590"/>
    <path id="Path_6" data-name="Path 6" d="M961.437,727.505V623.431H747.506V419.136H901.69V315.061H747.506V135.822h200.44V31.747H628.013V727.505Z" transform="translate(72 -1114)" fill="#075590"/>
    <path id="Path_7" data-name="Path 7" d="M1125.258,727.505V292.9h1.927l152.257,434.608h104.074V31.747H1275.588V429.736h-1.927L1128.149,31.747h-110.82V727.505Z" transform="translate(72 -1114)" fill="#075590"/>
    <path id="Path_8" data-name="Path 8" d="M1667.8,135.822l-222.6,477.972V727.505h343.061V623.431H1568.539l219.713-477.972V31.747H1472.174V135.822Z" transform="translate(72 -1114)" fill="#075590"/>
  </g>
</svg>
