<svg xmlns="http://www.w3.org/2000/svg" width="1736.504" height="695.758" viewBox="0 0 1736.504 695.758">
  <g id="Group_1" data-name="Group 1" transform="translate(-1326.073 1218.253)">
    <path id="Path_5" data-name="Path 5" d="M380.354,31.747l-84.8,406.662h-1.927l-84.8-406.662H51.748V727.505H155.822V184h1.927l107.929,543.5H323.5L431.427,184h1.927v543.5H537.429V31.747Z" transform="translate(1274.325 -1250)" fill="#fff"/>
    <path id="Path_6" data-name="Path 6" d="M961.437,727.505V623.431H747.506V419.136H901.69V315.061H747.506V135.822h200.44V31.747H628.013V727.505Z" transform="translate(1274.325 -1250)" fill="#fff"/>
    <path id="Path_7" data-name="Path 7" d="M1125.258,727.505V292.9h1.927l152.257,434.608h104.074V31.747H1275.588V429.736h-1.927L1128.149,31.747h-110.82V727.505Z" transform="translate(1274.325 -1250)" fill="#fff"/>
    <path id="Path_8" data-name="Path 8" d="M1667.8,135.822l-222.6,477.972V727.505h343.061V623.431H1568.539l219.713-477.972V31.747H1472.174V135.822Z" transform="translate(1274.325 -1250)" fill="#fff"/>
  </g>
</svg>
